.
 
http://www.scenetime.com    -  Hottest private tracker on the net. !!!

New release on http://www.scenetime.com

        Seed back for speed


...................................NFO:.................................................[img]http://img694.imageshack.us/img694/982/iq4bau2gdl1hwsttf0gw.jpg[/img]

SAMURAi Presents to you:
Flypaper.2011.DVDRip.XviD.AC3-SAMURAi

Encode:
Sourced was VISUALIZE DVDR thanks guys source was pretty decent
usual filters added to video enjoy

Source: DVD5
Video: 720X304 @bitrate 1800 @2pass
Audio: AC3 5.1 @448 KB
Sample: yes, included  
http://www.imdb.com/title/tt1541160/


General
Complete name                    : Flypaper.2011.DVDRip.XviD.AC3-SAMURAi.avi
Format                           : AVI
Format/Info                      : Audio Video Interleave
File size                        : 1.37 GiB
Duration                         : 1h 23mn
Overall bit rate                 : 2 345 Kbps
Writing application              : Nandub v1.0rc2
Writing library                  : Nandub build 1852/release

Video
ID                               : 0
Format                           : MPEG-4 Visual
Format profile                   : Advanced Simple@L5
Format settings, BVOP            : 2
Format settings, QPel            : No
Format settings, GMC             : No warppoints
Format settings, Matrix          : Default (H.263)
Muxing mode                      : Packed bitstream
Codec ID                         : XVID
Codec ID/Hint                    : XviD
Duration                         : 1h 23mn
Bit rate                         : 1 888 Kbps
Width                            : 720 pixels
Height                           : 304 pixels
Display aspect ratio             : 2.35:1
Frame rate                       : 25.000 fps
Color space                      : YUV
Chroma subsampling               : 4:2:0
Bit depth                        : 8 bits
Scan type                        : Progressive
Compression mode                 : Lossy
Bits/(Pixel*Frame)               : 0.345
Stream size                      : 1.10 GiB (80%)
Writing library                  : XviD 64

Audio
ID                               : 1
Format                           : AC-3
Format/Info                      : Audio Coding 3
Mode extension                   : CM (complete main)
Codec ID                         : 2000
Duration                         : 1h 23mn
Bit rate mode                    : Constant
Bit rate                         : 448 Kbps
Channel(s)                       : 6 channels
Channel positions                : Front: L C R, Side: L R, LFE
Sampling rate                    : 48.0 KHz
Bit depth                        : 16 bits
Compression mode                 : Lossy
Stream size                      : 268 MiB (19%)
Alignment                        : Split accross interleaves
Interleave, duration             : 40 ms (1.00 video frame)
Interleave, preload duration     : 500 ms


Plot
A man caught in the middle of two simultaneous robberies at the same bank
desperately tries to protect the teller with whom he's secretly in love.


Screenshots
[img]http://img43.imageshack.us/img43/7400/vlcsnap2011100423h24m01.png[/img]
[img]http://img31.imageshack.us/img31/331/vlcsnap2011100423h25m11.png[/img]
[img]http://img851.imageshack.us/img851/3292/vlcsnap2011100423h25m26.png[/img]
[img]http://img12.imageshack.us/img12/613/vlcsnap2011100423h26m24.png[/img]


Greetz:
Cm8, Santi, Rx, Noir, Ember, NPW, Unknown, VIP3R, SiC, Flojo, and other
p2p groups come and past!

Contact:
Got any requests or anything to offer?
Contact me at SAMURAi@Hushmail.me